<?xml version="1.0" standalone="no"?>
<!DOCTYPE svg PUBLIC "-//W3C//DTD SVG 20010904//EN"
 "http://www.w3.org/TR/2001/REC-SVG-20010904/DTD/svg10.dtd">
<svg version="1.0" xmlns="http://www.w3.org/2000/svg"
 width="1400.000000pt" height="1400.000000pt" viewBox="0 0 1400.000000 1400.000000"
 preserveAspectRatio="xMidYMid meet">
<metadata>
Created by potrace 1.11, written by Peter Selinger 2001-2013
</metadata>
<g transform="translate(0.000000,1400.000000) scale(0.100000,-0.100000)"
fill="#000000" stroke="none">
<path d="M2843 11192 c-18 -2 -33 -9 -34 -15 0 -16 0 -2024 0 -2057 l1 -25
1043 1 c573 1 1044 2 1047 3 3 0 5 471 5 1046 l0 1045 -35 1 c-162 2 -2002 3
-2027 1z"/>
<path d="M9170 11192 l-75 -3 0 -1044 c0 -575 2 -1046 5 -1046 3 -1 474 -2
1048 -3 l1042 -1 0 75 c3 462 0 2013 -4 2017 -5 5 -1885 10 -2016 5z"/>
<path d="M713 5953 l2 -1048 1035 -2 c569 -1 1040 -2 1047 -2 9 -1 12 -242 11
-1041 0 -573 2 -1043 5 -1047 8 -7 8366 -7 8374 1 10 10 5 2079 -5 2085 -6 3
-1886 6 -4179 5 -2292 0 -4174 2 -4180 4 -10 3 -13 222 -13 1048 l0 1044
-1049 0 -1049 0 1 -1047z"/>
<path d="M11190 5952 l0 -1049 1048 1 1047 1 2 1048 1 1047 -1049 0 -1049 0 0
-1048z"/>
</g>
</svg>
